<svg id="Layer_1" data-name="Layer 1" xmlns="http://www.w3.org/2000/svg" viewBox="0 0 107 165.67"><defs><style>.cls-1{fill:#ecc200;}.cls-2{fill:#ad8e00;}.cls-3{fill:#fff;}</style></defs><title>Editor’s Choice</title><polygon class="cls-1" points="53.71 137.77 107.19 166.03 107.19 0.33 0.23 0.33 0.23 166.03 53.71 137.77"/><polygon class="cls-2" points="54.54 24.85 59.59 35.08 70.88 36.72 62.71 44.68 64.64 55.93 54.54 50.62 44.44 55.93 46.37 44.68 38.2 36.72 49.49 35.08 54.54 24.85"/><polygon class="cls-2" points="25.58 31.46 29.25 38.88 37.45 40.08 31.52 45.86 32.92 54.02 25.58 50.17 18.25 54.02 19.65 45.86 13.72 40.08 21.92 38.88 25.58 31.46"/><polygon class="cls-2" points="83.47 31.46 87.14 38.88 95.33 40.08 89.4 45.86 90.8 54.02 83.47 50.17 76.14 54.02 77.54 45.86 71.61 40.08 79.8 38.88 83.47 31.46"/><path class="cls-3" d="M16.36,81.71v2.74h4.43v2.4H16.36v2.91h5V92.3H13.18V79.18h8.17v2.53Z"/><path class="cls-3" d="M34.12,89.14a5.85,5.85,0,0,1-2.37,2.33,7.68,7.68,0,0,1-3.65.83h-5V79.18h5a7.78,7.78,0,0,1,3.66.82,5.69,5.69,0,0,1,2.36,2.3A6.92,6.92,0,0,1,35,85.71,7,7,0,0,1,34.12,89.14Zm-3.41-.66a4.23,4.23,0,0,0,0-5.53,4,4,0,0,0-2.89-1h-1.5v7.49h1.5A4,4,0,0,0,30.71,88.48Z"/><path class="cls-3" d="M39.92,79.18V92.3H36.75V79.18Z"/><path class="cls-3" d="M51.53,79.18v2.53H48V92.3H44.78V81.71H41.25V79.18Z"/><path class="cls-3" d="M62.47,79.84a6.31,6.31,0,0,1,2.38,2.4,6.77,6.77,0,0,1,.88,3.46,7,7,0,0,1-.88,3.47,6.43,6.43,0,0,1-2.4,2.4,7,7,0,0,1-6.7,0,6.48,6.48,0,0,1-2.39-2.4,6.86,6.86,0,0,1-.88-3.47,6.77,6.77,0,0,1,.88-3.46,6.48,6.48,0,0,1,2.39-2.4,7,7,0,0,1,6.72,0Zm-5.84,3.1a4.57,4.57,0,0,0,0,5.5,3.5,3.5,0,0,0,4.94,0,3.9,3.9,0,0,0,.93-2.74A4,4,0,0,0,61.58,83a3.53,3.53,0,0,0-4.95,0Z"/><path class="cls-3" d="M74.24,92.3l-2.84-5h-.72v5H67.51V79.18h5.42a5.84,5.84,0,0,1,2.63.54,3.63,3.63,0,0,1,1.61,1.48,4.2,4.2,0,0,1,.54,2.14,3.79,3.79,0,0,1-.79,2.43,4,4,0,0,1-2.29,1.37l3.12,5.16Zm-3.56-7.12h2A2,2,0,0,0,74,84.76a1.63,1.63,0,0,0,.44-1.23A1.66,1.66,0,0,0,74,82.3a1.88,1.88,0,0,0-1.38-.44h-2Z"/><path class="cls-3" d="M81.85,78.87a3,3,0,0,1-.66,2,2.4,2.4,0,0,1-1.92.77V80.5c.64,0,1-.41,1-1.24V79H79.07V76.68H81.5A7,7,0,0,1,81.85,78.87Z"/><path class="cls-3" d="M92.67,90.52a3.69,3.69,0,0,1-1.55,1.39,5.47,5.47,0,0,1-2.5.52A6,6,0,0,1,85,91.36a3.89,3.89,0,0,1-1.55-3H86.8a1.83,1.83,0,0,0,.53,1.17,1.64,1.64,0,0,0,1.16.43,1.38,1.38,0,0,0,1-.34,1.18,1.18,0,0,0,.35-.89,1.13,1.13,0,0,0-.33-.83,2.33,2.33,0,0,0-.8-.55c-.33-.14-.77-.31-1.34-.51a16.08,16.08,0,0,1-2-.83A3.72,3.72,0,0,1,84,84.82a3.91,3.91,0,0,1,0-4.08,3.89,3.89,0,0,1,1.64-1.31A6.06,6.06,0,0,1,88,79a5.41,5.41,0,0,1,3.48,1A3.94,3.94,0,0,1,93,82.88H89.53a1.74,1.74,0,0,0-.47-1,1.57,1.57,0,0,0-1.93-.09,1.1,1.1,0,0,0-.35.88,1.11,1.11,0,0,0,.31.78,2.16,2.16,0,0,0,.77.53c.31.14.75.31,1.34.52a14.87,14.87,0,0,1,2,.85,3.79,3.79,0,0,1,1.38,1.21,3.5,3.5,0,0,1,.57,2.08A3.55,3.55,0,0,1,92.67,90.52Z"/><path class="cls-3" d="M28.43,102.64a6,6,0,0,1,2.12,3.56H27.19a3.07,3.07,0,0,0-1.14-1.43,3.15,3.15,0,0,0-1.83-.52,2.79,2.79,0,0,0-2.24,1,4.75,4.75,0,0,0,0,5.45,2.81,2.81,0,0,0,2.24,1,3.23,3.23,0,0,0,1.83-.52,3.17,3.17,0,0,0,1.14-1.41h3.36a6.06,6.06,0,0,1-2.12,3.55,6.43,6.43,0,0,1-4.15,1.33,6.48,6.48,0,0,1-3.36-.85,5.79,5.79,0,0,1-2.24-2.36,8.11,8.11,0,0,1,0-6.94,5.82,5.82,0,0,1,2.24-2.37,6.57,6.57,0,0,1,3.36-.84A6.43,6.43,0,0,1,28.43,102.64Z"/><path class="cls-3" d="M43.67,101.45v13.12H40.48v-5.48h-5v5.48H32.33V101.45H35.5v5.08h5v-5.08Z"/><path class="cls-3" d="M55.46,102.11a6.21,6.21,0,0,1,2.38,2.39,7.3,7.3,0,0,1,0,6.93,6.19,6.19,0,0,1-2.39,2.4,6.88,6.88,0,0,1-6.7,0,6.26,6.26,0,0,1-2.39-2.4,7.26,7.26,0,0,1,0-6.93,6.31,6.31,0,0,1,2.39-2.39,6.92,6.92,0,0,1,6.72,0Zm-5.85,3.09a4.63,4.63,0,0,0,0,5.51,3.51,3.51,0,0,0,5,0,3.93,3.93,0,0,0,.93-2.75,4,4,0,0,0-.92-2.75,3.54,3.54,0,0,0-5,0Z"/><path class="cls-3" d="M63.67,101.45v13.12H60.49V101.45Z"/><path class="cls-3" d="M76,102.64a6,6,0,0,1,2.12,3.56H74.76a3.07,3.07,0,0,0-1.14-1.43,3.15,3.15,0,0,0-1.83-.52,2.79,2.79,0,0,0-2.24,1,4.79,4.79,0,0,0,0,5.45,2.81,2.81,0,0,0,2.24,1,3.23,3.23,0,0,0,1.83-.52,3.17,3.17,0,0,0,1.14-1.41h3.36A6.06,6.06,0,0,1,76,113.35a6.43,6.43,0,0,1-4.15,1.33,6.51,6.51,0,0,1-3.36-.85,5.79,5.79,0,0,1-2.24-2.36,8.11,8.11,0,0,1,0-6.94,5.82,5.82,0,0,1,2.24-2.37,6.6,6.6,0,0,1,3.36-.84A6.43,6.43,0,0,1,76,102.64Z"/><path class="cls-3" d="M83.07,104v2.75h4.44v2.39H83.07V112h5v2.55H79.9V101.45h8.16V104Z"/></svg>